<svg version="1" xmlns="http://www.w3.org/2000/svg" width="752" height="752" viewBox="0 0 564.000000 564.000000"><path d="M269 51.6c-30.1 4.7-55.8 26.6-65.4 55.6-4.3 13.1-5.2 29.9-2.2 41.4.9 3.4 1.6 6.4 1.6 6.6 0 .3-3.7-.3-8.2-1.3-12.8-2.8-31.7-1.5-42.3 3-14.4 6-23.3 12-32.2 21.5-9 9.6-17.5 24.9-19.8 35.1-.2 1.1-.6 3.1-1 4.5-3.8 17.3-.7 39 7.9 55.5 3.6 6.9 12.2 17.8 18.3 23.2l5.9 5.2-5.4 5.8c-13.9 14.8-23.8 35.6-27.1 56.8-.9 6.1-.7 26.9.4 31.5.3 1.4.7 3.7 1 5.2 1.1 5.9 6.9 20.5 10.5 26.4 14 23 38.3 44.9 76.4 68.8 13.7 8.6 24.4 14.3 28.6 15.1 8.4 1.8 11.1 2.1 16.5 1.8 14.5-.6 25.7-5.6 36.1-15.8 4.8-4.8 8.1-9.2 10.4-13.8l3.3-6.7 2.5 5.2c12.1 25.5 40.9 37.4 67.6 27.9 8-2.8 32.4-17.8 49.6-30.4 23.9-17.6 40.4-34.1 50.6-50.7 13.1-21.4 16.9-47.3 11-74.9-3.3-15.2-14-34.5-26-46.9-4.9-5.2-5-5.4-3.1-6.8 7.8-5.7 18.8-19.1 23.7-28.9 2.9-5.6 6.3-16.1 7.4-22.7.9-5.3 1-23.2.1-27.3-.4-1.7-.9-4.3-1.2-5.8-1.4-7.2-7.2-20.6-11.9-27.1-13.6-19.1-33-31.7-54.9-35.4-9.8-1.6-27.8-.4-35.2 2.4-1.1.5-1.1-.3.1-4.8.8-2.9 1.7-9.2 2.1-14 2.8-40.5-27.4-78-68.7-85.4-6.3-1.1-19.4-1-27 .2zm25 45.7c20.3 6 32.8 28.3 26.9 47.8-3.3 11-14.8 30.8-27.2 46.9-9.9 12.8-12 13.2-20.2 3.2-12.9-15.5-26.3-38.1-29.9-50.1-4-13.6.2-28.1 11-38.5 10.6-10.1 25.1-13.5 39.4-9.3zm-98.5 103.3c9.6 3.9 24.8 13.1 38.2 23.1 18 13.4 18 14-1.2 28.2-24.9 18.5-42.8 26.7-55.5 25.5-25.8-2.4-42.7-28.5-34.4-52.9 7.5-22.2 30.8-32.7 52.9-23.9zm204.9.2c17.2 8.1 26.6 26.2 23.1 44.7-2 10.2-11.4 22.6-20.7 27.3-14.7 7.3-25.8 6.3-44.8-4-6.7-3.6-24.7-15.2-26-16.7-.3-.3-3.1-2.6-6.4-5.1-7.7-5.8-9.2-8.2-7.7-11.8 1.7-4 25.4-21.4 40.3-29.5 17.1-9.4 29.5-10.8 42.2-4.9zm-112.6 66.4c5.4 7.9 14.2 15.9 21.1 19.4 2.7 1.3 5.5 2.4 6.2 2.5.8 0-.3.7-2.3 1.4-5 1.8-11.7 6.5-17.3 12.1-5.5 5.4-12.5 15.9-12.5 18.8 0 1.3-1.2-.3-3-4-1.6-3.3-5.7-9-9-12.6-6.1-6.7-17.4-14.8-20.7-14.8-1 0 1.1-1.5 4.7-3.2 8.5-4.1 20.5-16 24.6-24.3l2.9-6.1 1.2 3.3c.6 1.8 2.5 5.2 4.1 7.5zm-73.9 54.2c21.2 4.5 39.5 21.7 45.3 42.5 3.6 12.9 1.3 37.9-5.8 65.1-3.5 13-10.9 35.3-12.9 38.8-4.3 7.3-10.5 7.3-22.3.1-38.8-23.6-64.4-45.8-72.5-63-4.1-8.7-5.9-21.2-4.5-30.8 1.5-10.3 2.4-13.4 6.5-21.3 8.2-15.8 23.3-27.3 41.3-31.3 5.2-1.2 19.6-1.2 24.9-.1zm162.1.1c1 .3 2.9.8 4.2 1 1.3.2 6 2.3 10.6 4.6 14.5 7.3 25.7 20.8 30.7 36.9 2.6 8.2 2.8 23.6.4 32.1-3.5 12.8-9 20.5-26 36.4-13.2 12.5-53.4 39.7-59.9 40.5-9.1 1.3-11.5-1.7-18.4-22.7-3-9.5-5.8-18.3-6.1-19.5-.2-1.3-1.4-6.1-2.5-10.8-1.1-4.6-2.3-10-2.6-12-.3-1.9-.7-4.2-.9-5-1-3.7-1.9-16.3-1.8-24.7.2-27.2 18.1-49.2 45.5-56.2 7.1-1.8 21.9-2.2 26.8-.6z"/></svg>